<?xml version="1.0" standalone="no"?><!DOCTYPE svg PUBLIC "-//W3C//DTD SVG 1.1//EN" "http://www.w3.org/Graphics/SVG/1.1/DTD/svg11.dtd"><svg t="1642613372690" class="icon" viewBox="0 0 1024 1024" version="1.1" xmlns="http://www.w3.org/2000/svg" p-id="2232" xmlns:xlink="http://www.w3.org/1999/xlink" width="200" height="200"><defs><style type="text/css"></style></defs><path d="M519.703 853.443c-78.55-0.019-141.938-37.773-144.603-39.385-2.179-1.647-12.103-10.198-15.526-30.138l-0.183-1.063 0.064-1.062c0.027-0.586 2.875-58.134-28.225-117.019-2.683-3.149-87.429-111.817-111.04-225.21-1.309-5.75-31.172-146.058 110.591-278.291 3.571-2.975 78.852-64.148 185.333-64.148 75.803 0 147.467 31.044 212.998 92.282 2.215 2.325 178.594 193.928 9.173 409.947-0.513 0.714-71.683 99.716-78.823 184.875 1.318 15.068-10.144 26.695-17.285 31.254-35.485 25.105-76.828 37.958-122.474 37.958z m-133.681-54.545c0.248 0 61.027 35.777 133.681 35.795 41.691 0 79.391-11.699 112.019-34.752 0.403-0.274 9.998-6.829 9.027-14.428l-0.128-0.952 0.091-0.952c7.142-90.652 79.538-191.301 82.614-195.549 159.771-203.733-5.749-383.582-7.434-385.367-61.521-57.465-128.883-86.816-199.778-86.816-99.533 0-172.259 58.894-172.982 59.489C209.607 299.937 238.198 434.24 238.51 435.576c22.759 109.291 107.524 217.942 108.375 219.022 32.363 60.99 31.676 117.988 31.337 127.106 2.308 12.104 7.535 16.956 7.8 17.194z" fill="#7C3E0B" p-id="2233"></path><path d="M519.813 933.75c-60.743 0-106.847-29.698-107.524-30.138l-2.069-1.374-1.126-2.196c-9.301-18.2 1.63-66.739 3.918-76.279l18.237 4.358c-5.393 22.539-9 50.992-6.216 61.338 15.243 9.136 96.026 52.53 178.494 1.702 1.666-9.813 4.925-37.261-6.537-55.662l15.893-9.924c18.273 29.277 8.624 71.684 8.222 73.478l-0.879 3.681-3.168 2.051c-33.509 21.678-67.181 28.965-97.245 28.965z" fill="#7C3E0B" p-id="2234"></path><path d="M505.348 200.991c-47.669 0-91.311 17.12-125.211 45.491 12.158 6.619 20.507 19.354 20.507 34.175 0 21.578-17.486 39.064-39.064 39.064-11.782 0-22.228-5.328-29.387-13.577-14.081 26.989-22.155 57.612-22.155 90.158 0 107.881 87.438 195.329 195.311 195.329 107.863 0 195.311-87.448 195.311-195.329-0.002-107.872-87.449-195.311-195.312-195.311z" fill="#EFCA18" p-id="2235"></path><path d="M505.348 593.975c-108.989 0-197.654-88.674-197.654-197.673 0-32.024 7.543-62.729 22.42-91.238l1.593-3.058 2.252 2.6c7.049 8.121 17.111 12.771 27.621 12.771 20.25 0 36.72-16.47 36.72-36.721 0-13.338-7.388-25.643-19.28-32.115l-3.03-1.648 2.646-2.206c35.475-29.689 80.472-46.04 126.713-46.04 108.98 0 197.654 88.665 197.654 197.654-0.001 108.999-88.675 197.674-197.655 197.674zM332.769 310.172c-13.531 27.007-20.388 55.964-20.388 86.129 0 106.417 86.569 192.985 192.967 192.985s192.968-86.569 192.968-192.985c0-106.398-86.569-192.967-192.968-192.967-44.044 0-86.926 15.188-121.156 42.845 11.673 7.635 18.795 20.553 18.795 34.477 0 22.833-18.576 41.408-41.408 41.408-10.748 0-21.065-4.293-28.81-11.892z" fill="#E5C326" p-id="2236"></path><path d="M347.949 320.151s-23.748 33.874-20.617 63.563c0 0 7.818 14.071 15.627-6.244 0 0 12.496-24.993 9.375-46.873l-4.385-10.446z" fill="#7C3E0B" p-id="2237"></path><path d="M375.65 279.091m-14.84 0a14.84 14.84 0 1 0 29.68 0 14.84 14.84 0 1 0-29.68 0Z" fill="#7C3E0B" p-id="2238"></path></svg>